<svg xmlns="http://www.w3.org/2000/svg" viewBox="0 0 207.39 137.89"><defs><style>.cls-1{fill:#fff;}.cls-10,.cls-11,.cls-2,.cls-3,.cls-4,.cls-5,.cls-6,.cls-8{fill:none;stroke-miterlimit:10;}.cls-10,.cls-11,.cls-2,.cls-3,.cls-4,.cls-5{stroke:#000;}.cls-2,.cls-8{stroke-width:0.8px;}.cls-10,.cls-3,.cls-4{stroke-width:0.4px;}.cls-3{stroke-dasharray:0.4 1.99;}.cls-5,.cls-6{stroke-linecap:round;}.cls-5{stroke-width:1.99px;}.cls-6{stroke:red;stroke-width:1px;}.cls-7{fill:red;}.cls-8{stroke:blue;}.cls-9{fill:blue;}.cls-10{stroke-dasharray:2.99 2.99;}.cls-11{stroke-width:0.4px;}</style></defs><title>Asset 6</title><g id="Layer_2" data-name="Layer 2"><g id="Layer_1-2" data-name="Layer 1"><rect class="cls-1" width="207.39" height="137.89"/><line class="cls-2" x1="24.37" y1="121.93" x2="24.37" y2="13.21"/><path d="M24.37,8.55a18.79,18.79,0,0,1-1.95,5.18h3.89a18.43,18.43,0,0,1-1.94-5.18"/><line class="cls-2" x1="24.37" y1="121.93" x2="189.78" y2="121.93"/><path d="M194.45,121.93a18.32,18.32,0,0,1-5.18-1.94v3.89a18.67,18.67,0,0,1,5.18-1.95"/><line class="cls-3" x1="24.37" y1="121.93" x2="185.43" y2="32.45"/><path d="M14.1,5.93a.63.63,0,0,0,0-.23.27.27,0,0,0-.29-.27.43.43,0,0,0-.35.21,4.82,4.82,0,0,0-.13.54c-.07.26-.15.53-.2.8l-.45,1.79a1.39,1.39,0,0,1-1.13.85c-.51,0-.62-.44-.62-.81a5.86,5.86,0,0,1,.51-1.95,1.81,1.81,0,0,0,.2-.72.79.79,0,0,0-.82-.82c-.94,0-1.31,1.45-1.31,1.54s.1.09.12.09.11,0,.16-.17c.27-.94.67-1.24,1-1.24.08,0,.25,0,.25.32a2.12,2.12,0,0,1-.17.7,6.67,6.67,0,0,0-.57,2.09,1.1,1.1,0,0,0,1.21,1.18,1.44,1.44,0,0,0,1-.44,3.8,3.8,0,0,1-.65,1.53,1.43,1.43,0,0,1-1.1.63.8.8,0,0,1-.75-.42.58.58,0,0,0,.43-.12.54.54,0,0,0,.2-.41.34.34,0,0,0-.37-.35.58.58,0,0,0-.56.65.94.94,0,0,0,1.05.87,2.62,2.62,0,0,0,2.33-2l1-3.81"/><path d="M20,6.41a.08.08,0,0,0-.09-.09c-.05,0-.06,0-.12.08l-.51.54A1.55,1.55,0,0,0,18,6.32a3.42,3.42,0,0,0-3.36,3.07,2,2,0,0,0,2.16,2,2.26,2.26,0,0,0,1.63-.55c.07.15.26.4.34.4s.08,0,.11-.17L19,10.5l.15-.63c.08-.31.09-.32.5-.32.05,0,.15,0,.15-.15a.09.09,0,0,0-.1-.1l-.77,0h-.58l-.55,0a.13.13,0,0,0-.15.15c0,.1.08.1.25.1h.4c.23,0,.24,0,.24.13a.82.82,0,0,1-.05.23c-.05.19-.13.5-.16.57a1.55,1.55,0,0,1-1.39.62A1.46,1.46,0,0,1,15.34,9.6a3.46,3.46,0,0,1,.86-2.21,2.65,2.65,0,0,1,1.86-.82,1.25,1.25,0,0,1,1.28,1.37,2.07,2.07,0,0,1,0,.28c0,.09.09.09.13.09s.11,0,.14-.15L20,6.41"/><path d="M191.57,126.74c.06-.26.29-1.18,1-1.18a1,1,0,0,1,.5.13.58.58,0,0,0-.48.54.35.35,0,0,0,.38.35.56.56,0,0,0,.54-.58c0-.52-.59-.66-.93-.66a1.29,1.29,0,0,0-1,.76,1.1,1.1,0,0,0-1.07-.76c-1,0-1.61,1.29-1.61,1.53s.1.1.12.1.11,0,.13-.11c.34-1,1-1.3,1.34-1.3.19,0,.54.09.54.67a14.33,14.33,0,0,1-.54,2.37c-.16.62-.51,1-1,1a1,1,0,0,1-.5-.13.57.57,0,0,0,.47-.54.34.34,0,0,0-.37-.35.56.56,0,0,0-.54.58c0,.45.49.65.93.65a1.32,1.32,0,0,0,1.05-.75,1.1,1.1,0,0,0,1.07.75c1,0,1.6-1.28,1.6-1.53,0-.1-.09-.1-.12-.1s-.11,0-.13.11c-.33,1.07-1,1.31-1.33,1.31s-.55-.32-.55-.66a4.07,4.07,0,0,1,.18-.88l.33-1.36"/><path d="M199.82,126.43a.08.08,0,0,0-.09-.09s-.06,0-.13.08l-.51.54a1.55,1.55,0,0,0-1.31-.62,3.42,3.42,0,0,0-3.35,3.07,2,2,0,0,0,2.16,2,2.29,2.29,0,0,0,1.63-.55c.07.15.25.4.34.4s.07,0,.11-.17l.13-.54c0-.13.13-.54.15-.63.09-.31.09-.32.51-.33,0,0,.15,0,.15-.14a.1.1,0,0,0-.1-.11l-.77,0h-.58l-.55,0c-.05,0-.16,0-.16.16s.08.09.26.09a2.68,2.68,0,0,1,.4,0c.22,0,.23,0,.23.13a.8.8,0,0,1-.05.22c0,.2-.12.51-.15.58a1.55,1.55,0,0,1-1.4.62,1.47,1.47,0,0,1-1.61-1.52,3.41,3.41,0,0,1,.87-2.2,2.63,2.63,0,0,1,1.85-.82,1.25,1.25,0,0,1,1.29,1.36,1.44,1.44,0,0,1,0,.29c0,.09.09.09.13.09s.11,0,.15-.15l.43-1.75"/><path d="M23.53,132.22c-1,0-1.69-.8-1.69-2.12a6.22,6.22,0,0,1,.91-3.06,3.17,3.17,0,0,1,2.45-1.55c.82,0,1.71.56,1.71,2a6.11,6.11,0,0,1-1.25,3.5,3,3,0,0,1-2.13,1.19m4.27-4.3a2.5,2.5,0,0,0-2.54-2.68,4.79,4.79,0,0,0-4.34,4.58,2.48,2.48,0,0,0,2.55,2.66,4.75,4.75,0,0,0,4.33-4.56"/><line class="cls-3" x1="116.05" y1="71" x2="24.37" y2="71"/><path d="M13.76,69.09a.5.5,0,0,1,.16-.33A1.51,1.51,0,0,1,15,68.11c.42,0,.59.42.59.84a5.58,5.58,0,0,1-.53,2,1.33,1.33,0,0,1-1,.79c-.59,0-.73-.71-.73-.78a.58.58,0,0,1,0-.14l.44-1.72M12.13,73c-.06.26-.07.34-.46.34-.1,0-.21,0-.21.16a.11.11,0,0,0,.12.12l.39,0h.84l.43,0a.14.14,0,0,0,.17-.16c0-.12-.09-.12-.24-.12-.43,0-.43-.06-.43-.14s.07-.3.1-.44l.34-1.34A.93.93,0,0,0,14,72a2.62,2.62,0,0,0,2.19-2.61A1.29,1.29,0,0,0,15,67.89a1.58,1.58,0,0,0-1.19.65.85.85,0,0,0-.85-.65.79.79,0,0,0-.69.52,4.34,4.34,0,0,0-.28.86c0,.08.06.11.13.11s.11,0,.16-.23c.17-.71.36-1,.66-1s.27.29.27.42a2.64,2.64,0,0,1,0,.28l-1,4.16"/><path d="M19.91,70.55a.45.45,0,0,0,0-.08.2.2,0,0,0-.22-.2.29.29,0,0,0-.24.15s-.07.23-.1.34l-.12.5-.19.74a.76.76,0,0,1-.3.49.81.81,0,0,1-.52.22.43.43,0,0,1-.44-.5A3.18,3.18,0,0,1,18.14,71a.58.58,0,0,0,.07-.29.55.55,0,0,0-.59-.52c-.61,0-.91.79-.91.92a.1.1,0,0,0,.11.09.11.11,0,0,0,.12-.09c.17-.58.48-.72.65-.72s.16.08.16.21a1.47,1.47,0,0,1-.14.49,3,3,0,0,0-.28,1c0,.57.42.78.89.78a1,1,0,0,0,.68-.28,1.63,1.63,0,0,1-.42.88,1,1,0,0,1-.73.36.66.66,0,0,1-.45-.16.36.36,0,0,0,.3-.34.22.22,0,0,0-.25-.22.36.36,0,0,0-.34.39c0,.29.28.53.74.53a1.7,1.7,0,0,0,1.59-1.22l.57-2.3"/><line class="cls-3" x1="116.05" y1="71" x2="116.05" y2="121.93"/><path d="M113.44,126.55a.54.54,0,0,1,.16-.33,1.53,1.53,0,0,1,1.05-.64c.42,0,.59.42.59.84a5.91,5.91,0,0,1-.53,2c-.31.51-.68.78-1,.78-.59,0-.73-.71-.73-.77a.58.58,0,0,1,0-.14l.44-1.73m-1.63,3.89c-.06.26-.08.34-.47.34-.09,0-.2,0-.2.16a.12.12,0,0,0,.11.12l.39,0h.85l.42,0c.06,0,.17,0,.17-.17s-.08-.11-.24-.11c-.42,0-.42-.07-.42-.15s.07-.29.1-.44l.33-1.33a.93.93,0,0,0,.85.55,2.62,2.62,0,0,0,2.2-2.61,1.3,1.3,0,0,0-1.24-1.45,1.6,1.6,0,0,0-1.18.66.85.85,0,0,0-.85-.66.78.78,0,0,0-.69.52,4.07,4.07,0,0,0-.28.86.11.11,0,0,0,.12.11c.1,0,.12,0,.17-.22.17-.71.36-1,.66-1s.27.28.27.42a1.24,1.24,0,0,1,0,.27l-1,4.17"/><path d="M119.39,128a.34.34,0,0,0-.26.32.23.23,0,0,0,.24.24.36.36,0,0,0,.35-.38c0-.32-.35-.46-.66-.46a.87.87,0,0,0-.7.41.81.81,0,0,0-.75-.41,1.2,1.2,0,0,0-1.09.92s0,.08.1.08.1,0,.12-.09a1,1,0,0,1,.85-.72.35.35,0,0,1,.38.39,1.18,1.18,0,0,1,0,.31c-.14.56-.27,1.1-.3,1.17a.65.65,0,0,1-.56.43.66.66,0,0,1-.34-.09.35.35,0,0,0,.26-.32.23.23,0,0,0-.24-.23.35.35,0,0,0-.35.37c0,.35.38.47.66.47a.84.84,0,0,0,.7-.42.8.8,0,0,0,.75.42,1.21,1.21,0,0,0,1.1-.92s0-.08-.12-.08-.09,0-.11.09a1,1,0,0,1-.85.71.35.35,0,0,1-.39-.38,2.13,2.13,0,0,1,.08-.45l.2-.78a1,1,0,0,1,.21-.48.59.59,0,0,1,.42-.21.64.64,0,0,1,.34.09"/><path class="cls-4" d="M47,121.93a29.59,29.59,0,0,0-1.11-7.87"/><path d="M44.19,110.92a14.5,14.5,0,0,1,.63,4.21l2.61-1.45a14.57,14.57,0,0,1-3.24-2.76"/><path d="M53.09,110.94a.1.1,0,0,0-.11-.1c-.11,0-.12,0-.15.19l-1.48,5.89c-.64-.08-1-.37-1-1a4.43,4.43,0,0,1,.45-1.57,1.28,1.28,0,0,0,.13-.5.74.74,0,0,0-.77-.76c-.86,0-1.22,1.28-1.22,1.38a.11.11,0,0,0,.12.11c.1,0,.11,0,.15-.17.19-.65.54-1.09.92-1.09.18,0,.22.11.22.29a1.7,1.7,0,0,1-.14.59,4.9,4.9,0,0,0-.49,1.65c0,.65.44,1.21,1.61,1.29l-.4,1.66a.1.1,0,0,0,.11.1c.11,0,.12,0,.17-.23.12-.5.26-1,.37-1.52A2.57,2.57,0,0,0,53.69,116a3.48,3.48,0,0,0,.75-1.8,2.79,2.79,0,0,0,0-.48c0-.63-.33-.67-.41-.67a.52.52,0,0,0-.46.45.3.3,0,0,0,.15.26,1,1,0,0,1,.32.75,2.69,2.69,0,0,1-.85,1.66,2.14,2.14,0,0,1-1.62.73l1.48-6"/><path class="cls-2" d="M78.2,88.23,66.43,94.77a2.83,2.83,0,0,0-1.11,3.85l.48.85a2.83,2.83,0,0,0,3.85,1.1L81.42,94a2.83,2.83,0,0,0,1.1-3.85l-.47-.85a2.83,2.83,0,0,0-3.85-1.1"/><line class="cls-5" x1="73.92" y1="94.4" x2="151.93" y2="51.07"/><line class="cls-6" x1="73.92" y1="94.4" x2="89.09" y2="76.92"/><path class="cls-7" d="M92.5,73a20.86,20.86,0,0,1-5.42,3l3.27,2.84A20.8,20.8,0,0,1,92.5,73"/><line class="cls-8" x1="76.19" y1="98.48" x2="80.81" y2="106.79"/><path class="cls-9" d="M73.92,94.4a18.5,18.5,0,0,1,.82,5.47L78.14,98a18.89,18.89,0,0,1-4.22-3.59"/><path class="cls-9" d="M86.08,102.42l.85-.47c.65-.36.8-.26.94,0a2.54,2.54,0,0,1,.18.46.27.27,0,0,0,0,.11.12.12,0,0,0,.17,0c.08,0,.07-.08,0-.26l-.57-2.15c0-.12,0-.13,0-.16a.11.11,0,0,0-.16,0c-.08,0-.07.09,0,.25.19.78.08,1.05-.66,1.46l-.8.44-.67-2.52c-.09-.35-.1-.39.28-.6l1.15-.64c1.08-.6,1.44-.42,1.81.25a3.59,3.59,0,0,1,.23.48l.07.17a.12.12,0,0,0,.17,0c.09-.06.07-.11,0-.29l-.67-1.6c-.1-.25-.14-.23-.36-.1l-4.27,2.37c-.17.09-.26.14-.16.32s.13,0,.29,0c.33-.18.57-.32.65-.16s0,0,.08.23L86,105.28c.1.38.12.46-.57.85-.14.08-.24.13-.15.3s.16,0,.19,0c.25-.14.88-.53,1.14-.67s1-.53,1.31-.69a.17.17,0,0,0,.09-.27c0-.07-.1-.06-.11-.07l-.25.13a4.84,4.84,0,0,1-.46.24c-.27.11-.31.09-.37,0a.93.93,0,0,1-.08-.22l-.67-2.47"/><path class="cls-9" d="M93.46,100.73a.81.81,0,0,0,0-.15.22.22,0,0,0-.31-.08.32.32,0,0,0-.17.28,3.29,3.29,0,0,0,.1.41l.15.58c0,.16.28,1,.3,1.12a1.12,1.12,0,0,1-.45.94.49.49,0,0,1-.7-.27,4,4,0,0,1-.33-1.37,1.3,1.3,0,0,0-.11-.43.61.61,0,0,0-.86-.19c-.62.34-.43,1.32-.37,1.42s.12,0,.14,0,.08-.08.06-.16c-.13-.59,0-1,.24-1.11s.19,0,.27.13a1,1,0,0,1,.11.4,3.91,3.91,0,0,0,.34,1.43.85.85,0,0,0,.56.46,1.15,1.15,0,0,0,.72-.15,1.13,1.13,0,0,0,.51-.65,2.1,2.1,0,0,1,.09,1.12,1.12,1.12,0,0,1-.51.8.65.65,0,0,1-.57,0,.38.38,0,0,0,.14-.52.26.26,0,0,0-.36-.1.42.42,0,0,0-.13.6c.17.31.59.38,1,.14a1.93,1.93,0,0,0,.87-2.1l-.7-2.63"/><path class="cls-9" d="M95.84,100.8s-.18-.67-.18-.7a1.67,1.67,0,0,1,.1-.72.93.93,0,0,1,.4-.44.71.71,0,0,1,.39-.1.4.4,0,0,0-.09.48.25.25,0,0,0,.37.09.41.41,0,0,0,.14-.56c-.18-.32-.58-.26-.9-.09a1.3,1.3,0,0,0-.62.91.72.72,0,0,0-.86-.08.64.64,0,0,0-.31.58,3.18,3.18,0,0,0,.12.74.11.11,0,0,0,.15,0c.09,0,.08-.08,0-.26-.11-.43-.15-.78.08-.91s.28,0,.37.19a2.64,2.64,0,0,1,.18.56c.05.19.13.47.18.62l.23.89a2.19,2.19,0,0,0,.08.28.22.22,0,0,0,.32.08.32.32,0,0,0,.16-.32s-.09-.35-.14-.52l-.2-.75"/><path class="cls-2" d="M148.72,44.28l-.22,13.46a2.82,2.82,0,0,0,2.78,2.88l1,0a2.84,2.84,0,0,0,2.89-2.79l.22-13.46a2.83,2.83,0,0,0-2.79-2.88l-1,0a2.84,2.84,0,0,0-2.88,2.79"/><line class="cls-6" x1="151.93" y1="51.07" x2="160.2" y2="29.45"/><path class="cls-7" d="M162.06,24.59A21,21,0,0,1,158,29.22L162,30.77a20.84,20.84,0,0,1,0-6.18"/><line class="cls-10" x1="151.93" y1="51.07" x2="152.53" y2="14.22"/><path class="cls-4" d="M164.32,44.18c-2.46-4.42-7.1-7.2-8.57-7.23"/><path d="M152.16,36.9a14.07,14.07,0,0,1,4,1.56l0-3a14.61,14.61,0,0,1-4,1.43"/><path d="M162.08,34.08a2.82,2.82,0,0,1,.49,1.53c0,.68-.37,2-1.16,2-.39,0-.88-.26-.88-1.06,0-.58.31-2.18,1.55-2.52m-.13-.22a2.7,2.7,0,0,0-2,2.49,1.44,1.44,0,0,0,1.48,1.53c1,0,1.81-1.36,1.81-2.64a2.44,2.44,0,0,0-.67-1.65c-.31-.38-.89-1.09-.89-1.49,0-.16.11-.4.49-.4a1.07,1.07,0,0,1,.65.24,1.55,1.55,0,0,0,.51.23.37.37,0,0,0,.36-.37c0-.2-.11-.22-.54-.31a2.75,2.75,0,0,0-.72-.1.9.9,0,0,0-1,.92,3.8,3.8,0,0,0,.56,1.55"/><path d="M158.66,20.38a3,3,0,0,1-1.86.79c-.5,0-.83-.33-.83-1a4.14,4.14,0,0,1,.52-1.84,1.63,1.63,0,0,1,1.23-.79c.6,0,.8.54.88,1.07s0,1.35.06,1.75m.63-1.19c0-1.34-.81-1.86-1.57-1.86a2.66,2.66,0,0,0-2.45,2.53,1.45,1.45,0,0,0,1.5,1.54,3.23,3.23,0,0,0,1.94-.76.89.89,0,0,0,.85.76.85.85,0,0,0,.78-.64c0-.1-.1-.1-.12-.1s-.11,0-.14.12a.58.58,0,0,1-.49.39c-.29,0-.29-.8-.29-1a.26.26,0,0,1,.08-.23,5.26,5.26,0,0,0,.63-1,4.6,4.6,0,0,0,.41-1.13.1.1,0,0,0-.11-.1c-.11,0-.11,0-.16.17a5,5,0,0,1-.86,1.75v-.5"/><path d="M163.37,20H164c.12,0,.2,0,.2-.15s-.07-.09-.18-.09h-.59c.18-1,.18-1,.21-1.1s0-.18.13-.25a.28.28,0,0,1,.21-.08.66.66,0,0,1,.28,0,.38.38,0,0,0-.23.33.23.23,0,0,0,.25.22.35.35,0,0,0,.34-.36c0-.33-.37-.44-.64-.44a.88.88,0,0,0-.85.72,3.32,3.32,0,0,0-.11.49c0,.17,0,.25-.08.42h-.49c-.12,0-.2,0-.2.15s.08.09.19.09h.46c-.23,1.34-.32,1.8-.34,1.91-.18,1-.21,1.09-.27,1.19s-.18.26-.33.26a.86.86,0,0,1-.27-.05.37.37,0,0,0,.23-.32.23.23,0,0,0-.24-.23.36.36,0,0,0-.35.36c0,.34.38.44.62.44a.94.94,0,0,0,.67-.4,3.35,3.35,0,0,0,.4-1.12l.37-2"/><line class="cls-8" x1="157.03" y1="51.06" x2="166.54" y2="51.16"/><path class="cls-9" d="M152.37,51a19.24,19.24,0,0,1,5.16,2l0-3.88a18.69,18.69,0,0,1-5.2,1.88"/><path class="cls-9" d="M172.5,56.51a.28.28,0,0,0-.05-.14.23.23,0,0,0-.31-.09.33.33,0,0,0-.17.29,3.29,3.29,0,0,0,.1.41l.15.57c.05.17.29,1,.3,1.12a1.14,1.14,0,0,1-.45.95.49.49,0,0,1-.7-.28A4.22,4.22,0,0,1,171,58a1.49,1.49,0,0,0-.1-.43.63.63,0,0,0-.87-.2c-.62.35-.43,1.33-.37,1.43s.13,0,.15,0,.07-.08.05-.16c-.13-.59,0-1,.25-1.11.1-.05.19,0,.27.13a1.05,1.05,0,0,1,.11.4,3.85,3.85,0,0,0,.33,1.44.84.84,0,0,0,.56.45,1.15,1.15,0,0,0,.72-.15,1.11,1.11,0,0,0,.51-.64,2.19,2.19,0,0,1,.1,1.12,1.11,1.11,0,0,1-.52.79.61.61,0,0,1-.57.06.4.4,0,0,0,.15-.52.27.27,0,0,0-.37-.1.42.42,0,0,0-.13.6c.17.31.59.37,1,.13a1.92,1.92,0,0,0,.87-2.1l-.7-2.63"/><path class="cls-9" d="M175.28,54.83l.6-.34c.12-.06.2-.11.12-.24s-.12,0-.23,0l-.57.31c-.29-.85-.4-1.16-.45-1.36a.41.41,0,0,1,.17-.44.73.73,0,0,1,.33-.08.39.39,0,0,0-.08.48.24.24,0,0,0,.36.09.4.4,0,0,0,.14-.56c-.15-.28-.54-.27-.85-.1a1,1,0,0,0-.47.87,4.66,4.66,0,0,0,.37,1.37l-.48.27c-.12.07-.2.11-.13.24s.13,0,.24,0l.45-.25s.85,2.45,1.06,3.18c0,.16.2.68-.09.84a.81.81,0,0,1-.31.08.43.43,0,0,0,.08-.49.26.26,0,0,0-.37-.09.42.42,0,0,0-.14.57.59.59,0,0,0,.83.1,1.12,1.12,0,0,0,.44-.94A6.6,6.6,0,0,0,176,56.9l-.71-2.07"/><path d="M116.05,71l3.09-1.72a3.54,3.54,0,0,0-4.81-1.38l3.44,6.2A3.55,3.55,0,0,1,113,72.72"/><path class="cls-2" d="M119.14,69.28a3.54,3.54,0,1,0-1.37,4.82,3.54,3.54,0,0,0,1.37-4.82"/><line class="cls-6" x1="116.05" y1="71" x2="130.69" y2="52.38"/><path class="cls-7" d="M133.57,48.72a18.81,18.81,0,0,1-4.73,2.87L131.9,54a18.44,18.44,0,0,1,1.67-5.27"/><path class="cls-7" d="M135.62,43.48c0-.54-.26-.7-.44-.7a.52.52,0,0,0-.48.48.35.35,0,0,0,.16.3,1.1,1.1,0,0,1,.33.82c0,.42-.6,2.7-1.77,2.7-.51,0-.74-.35-.74-.87a6.89,6.89,0,0,1,.58-2.11,1.23,1.23,0,0,0,.12-.5.79.79,0,0,0-.82-.82c-.93,0-1.31,1.45-1.31,1.54s.1.1.12.1.11,0,.16-.18c.29-1,.71-1.24,1-1.24.08,0,.25,0,.25.32a2.06,2.06,0,0,1-.17.7,6.34,6.34,0,0,0-.57,2,1.2,1.2,0,0,0,1.34,1.24c1.67,0,2.24-3.3,2.24-3.82"/><path class="cls-4" d="M130.92,62.74c-1.1-2-2.58-3.71-1.54-2.89"/><path d="M126.56,57.63a14.43,14.43,0,0,1,2.21,3.64l1.85-2.35a14.46,14.46,0,0,1-4.06-1.29"/><path d="M135.41,53.07a1.82,1.82,0,0,1-.8,1.52,2,2,0,0,0-.71-.1c-.46,0-.73.07-.73.3s.2.25.62.25a2.53,2.53,0,0,0,.8-.13,1.18,1.18,0,0,1,.39,1,2.6,2.6,0,0,1-.6,1.72,1.79,1.79,0,0,1-1.3.62A1,1,0,0,1,132,57.08a1,1,0,0,1,0-.28l.61-2.45c.2-.76.88-2.11,1.93-2.11a.76.76,0,0,1,.83.83m-1.13,1.68a1.69,1.69,0,0,1-.45.07,1,1,0,0,1-.39,0,.84.84,0,0,1,.39-.06,1.68,1.68,0,0,1,.45,0M136,53.22a1.22,1.22,0,0,0-1.39-1.2,1.32,1.32,0,0,0-.66.17,3.36,3.36,0,0,0-1.52,2.16L131,60s.06.1.12.1a.13.13,0,0,0,.12-.05l.62-2.44a1.26,1.26,0,0,0,1.24.85,2.74,2.74,0,0,0,1.84-.77,2.17,2.17,0,0,0,.67-1.55,1.61,1.61,0,0,0-.66-1.37,1.94,1.94,0,0,0,1-1.54"/><line class="cls-4" x1="60.42" y1="69.48" x2="102.02" y2="46.36"/><path d="M60.51,69.43a14.39,14.39,0,0,1,4.21-.63l-1.46-2.61a14.28,14.28,0,0,1-2.75,3.24"/><line class="cls-11" x1="61.44" y1="71.53" x2="59.22" y2="67.52"/><path d="M101.93,46.41a14.39,14.39,0,0,1-4.21.63l1.46,2.61a14.28,14.28,0,0,1,2.75-3.24"/><line class="cls-11" x1="101" y1="44.31" x2="103.22" y2="48.32"/><polyline class="cls-1" points="83.78 48.57 71.93 55.15 78.66 67.27 90.51 60.69 83.78 48.57"/><path d="M78.62,55.59a.39.39,0,0,0-.06-.17.12.12,0,0,0-.18-.05c-.13.07-.75.5-.91.61s-.15.1-.07.24.14.05.26,0c.36-.2.4-.14.43-.07s0,0,.07.2l1.18,4.4a2.27,2.27,0,0,0,.12.32.83.83,0,0,0,1.15.31.78.78,0,0,0,.36-.79,3.49,3.49,0,0,0-.19-.88.1.1,0,0,0-.15,0c-.1.05-.08.1,0,.26.16.61.22,1.08-.07,1.24s-.3,0-.44-.22a1.2,1.2,0,0,1-.15-.37l-1.32-5"/><path d="M83,59a1.57,1.57,0,0,1,.11-.61,1,1,0,0,1,.37-.4.87.87,0,0,1,.39-.11.34.34,0,0,0,0,.4.22.22,0,0,0,.32.09.37.37,0,0,0,.12-.5c-.15-.28-.53-.24-.86,0a1.09,1.09,0,0,0-.57.81.65.65,0,0,0-.78-.07.58.58,0,0,0-.28.52,1.94,1.94,0,0,0,.1.63c0,.06.09,0,.14,0s.07-.08,0-.18c-.13-.46-.1-.71.07-.8s.27,0,.33.15a3.73,3.73,0,0,1,.16.5c0,.16.11.4.14.53l.12.45c.05.17.13.47.15.5a.19.19,0,0,0,.27.07.28.28,0,0,0,.14-.31c0-.05-.25-1-.29-1.08L83,59"/><line class="cls-4" x1="102.54" y1="46.07" x2="137.9" y2="26.43"/><path d="M102.63,46a14.17,14.17,0,0,1,4.21-.63l-1.45-2.62A14.41,14.41,0,0,1,102.63,46"/><line class="cls-11" x1="103.57" y1="48.13" x2="101.34" y2="44.12"/><path d="M137.81,26.48a14.39,14.39,0,0,1-4.21.63l1.45,2.61a14.57,14.57,0,0,1,2.76-3.24"/><line class="cls-11" x1="136.87" y1="24.38" x2="139.1" y2="28.39"/><polyline class="cls-1" points="122.75 26.22 110.36 33.1 117.69 46.29 130.08 39.41 122.75 26.22"/><path d="M117.05,33.54a.47.47,0,0,0-.06-.18c0-.07-.1-.08-.17,0s-.75.49-.92.61a.15.15,0,0,0-.07.23c.06.1.14.06.26,0,.37-.2.4-.14.44-.08a1.83,1.83,0,0,1,.06.21l1.18,4.39a1.25,1.25,0,0,0,.13.32.82.82,0,0,0,1.15.32.79.79,0,0,0,.35-.79,4.6,4.6,0,0,0-.18-.89.12.12,0,0,0-.16,0c-.09,0-.08.09,0,.26.16.61.22,1.08-.07,1.24s-.3,0-.44-.23a1.25,1.25,0,0,1-.15-.37l-1.32-5"/><path d="M121.94,36.13l.53-.3c.11,0,.18-.1.11-.23s-.11,0-.21,0l-.51.28-.36-1.06a.42.42,0,0,1,0-.29.36.36,0,0,1,.15-.17.72.72,0,0,1,.27-.09.38.38,0,0,0,0,.4.22.22,0,0,0,.32.07.34.34,0,0,0,.12-.48c-.16-.29-.53-.2-.76-.07a.87.87,0,0,0-.4,1c0,.16.08.27.14.48s.09.24.14.41l-.43.24c-.1.06-.17.1-.1.23s.11,0,.2,0l.41-.22c.45,1.28.6,1.72.63,1.83a4.1,4.1,0,0,1,.34,1.17c0,.17,0,.32-.16.39a.72.72,0,0,1-.26.08.36.36,0,0,0,0-.39.23.23,0,0,0-.32-.08.35.35,0,0,0-.12.49c.16.29.54.2.75.08a.92.92,0,0,0,.39-.68,3.44,3.44,0,0,0-.19-1.17l-.67-2"/><line class="cls-4" x1="53.54" y1="57.09" x2="131.02" y2="14.04"/><path d="M53.62,57a14.5,14.5,0,0,1,4.21-.63L56.38,53.8A14.57,14.57,0,0,1,53.62,57"/><line class="cls-11" x1="54.56" y1="59.14" x2="52.34" y2="55.13"/><path d="M130.93,14.09a14.5,14.5,0,0,1-4.21.63l1.45,2.61a14.57,14.57,0,0,1,2.76-3.24"/><line class="cls-11" x1="129.99" y1="11.99" x2="132.22" y2="16"/><polyline class="cls-1" points="97.05 24.95 80.73 34.01 87.5 46.19 103.81 37.12 97.05 24.95"/><path d="M91.86,37.81a.52.52,0,0,0-.84-.39c-.53.29-.4,1.13-.34,1.24s.06.06.14,0a.11.11,0,0,0,.06-.14c-.14-.58.07-.86.22-.94s.18,0,.24.11a1.42,1.42,0,0,1,.11.5,3.08,3.08,0,0,0,.24,1c.28.5.8.49,1.29.21a.76.76,0,0,0,.41-.7l.07,0a.93.93,0,0,0,.91-.1c.95-.53.25-2.38.13-2.59-.21-.38-.46-.32-.52-.28a.35.35,0,0,0-.13.45.24.24,0,0,0,.2.12.54.54,0,0,1,.41.29c.07.12.49,1.46-.17,1.83a.47.47,0,0,1-.71-.22,2.84,2.84,0,0,1-.18-.54l-.16-.6-.1-.33a1.65,1.65,0,0,0,0-.21.21.21,0,0,0-.29-.06c-.19.1-.14.29-.08.5l.3,1.14a1.71,1.71,0,0,0,.11.27l.06.1c0,.4-.07.6-.29.72a.51.51,0,0,1-.77-.2,3,3,0,0,1-.23-1l0-.22"/><path d="M96.09,35.45a1.25,1.25,0,0,1,.5-.9c.27-.15.54,0,.71.28a3.07,3.07,0,0,1,.29,1.22,1,1,0,0,1-.41.8c-.16.09-.49.15-.74-.3a1.9,1.9,0,0,1-.2-.57c0-.13-.12-.42-.15-.53m-.55-2.07a.19.19,0,0,0,0-.09c0-.08-.14,0-.2,0l-.56.38c-.09.05-.15.09-.08.22s.11,0,.19,0a.67.67,0,0,1,.28-.1.93.93,0,0,1,.08.22l.29,1.09c0,.18.3,1.12.32,1.21a1.25,1.25,0,0,0,.13.28.92.92,0,0,0,1.31.43,1.75,1.75,0,0,0,.58-2.25,1,1,0,0,0-1.34-.41A1.28,1.28,0,0,0,96,35l-.44-1.66"/><path class="cls-9" d="M165.12,57.61l.85-.47c.65-.37.8-.27.94,0a2.23,2.23,0,0,1,.18.46.27.27,0,0,0,0,.11.11.11,0,0,0,.16,0c.09,0,.08-.07,0-.25l-.57-2.16a.29.29,0,0,0,0-.15.11.11,0,0,0-.16,0c-.08,0-.07.1,0,.26.2.78.09,1.05-.65,1.46l-.8.44-.67-2.53c-.09-.34-.1-.38.28-.59l1.15-.64c1.07-.6,1.43-.42,1.81.25a3.08,3.08,0,0,1,.23.48l.07.17a.11.11,0,0,0,.16,0c.1,0,.08-.1,0-.28l-.66-1.6c-.1-.25-.15-.23-.36-.11l-4.27,2.37c-.18.1-.26.15-.17.32s.14.06.3,0c.32-.18.57-.31.65-.16a1.11,1.11,0,0,1,.08.24l1.41,5.24c.1.39.12.47-.57.85-.15.09-.24.14-.15.3s.16,0,.19,0l1.13-.67,1.32-.69c.07,0,.18-.11.09-.27S167,60,167,60l-.25.13a3.28,3.28,0,0,1-.46.23c-.27.12-.31.1-.38,0s0-.07-.07-.21l-.67-2.47"/><path class="cls-4" d="M160.88,26.83a14.27,14.27,0,0,0-6-2"/><path d="M152.37,24.22a14.64,14.64,0,0,1,3.49,2.43l.74-2.9a14.1,14.1,0,0,1-4.23.47"/><path class="cls-7" d="M169.44,26.54c0-.53-.27-.69-.44-.69a.52.52,0,0,0-.49.47c0,.13.05.19.16.3a1.07,1.07,0,0,1,.34.82c0,.42-.61,2.7-1.78,2.7-.5,0-.73-.35-.73-.87a6.91,6.91,0,0,1,.57-2.11,1.23,1.23,0,0,0,.12-.5.78.78,0,0,0-.81-.81c-.94,0-1.32,1.44-1.32,1.53s.1.1.12.1.11,0,.16-.18c.29-1,.72-1.23,1-1.23.08,0,.25,0,.25.31a2.06,2.06,0,0,1-.17.7,6.13,6.13,0,0,0-.57,2,1.19,1.19,0,0,0,1.33,1.24c1.68,0,2.25-3.3,2.25-3.82"/><path class="cls-7" d="M170.55,31l.68-.06c.14,0,.23,0,.22-.17s-.1-.09-.23-.08l-.64.06c.08-.9.11-1.23.14-1.43a.4.4,0,0,1,.33-.33.72.72,0,0,1,.34,0,.43.43,0,0,0-.28.41.26.26,0,0,0,.31.23.4.4,0,0,0,.35-.46c0-.31-.38-.46-.74-.43a1,1,0,0,0-.78.6,4.6,4.6,0,0,0-.22,1.4l-.55.05c-.14,0-.23,0-.22.18s.1.08.23.07l.51,0s-.22,2.58-.32,3.34c0,.15-.09.69-.43.72a.62.62,0,0,1-.31-.05.41.41,0,0,0,.27-.42.26.26,0,0,0-.3-.23.42.42,0,0,0-.36.46c0,.31.37.47.72.44s.71-.53.78-.69a6.13,6.13,0,0,0,.3-1.44l.2-2.18"/><path class="cls-4" d="M98.36,80c-1.33-3-3.84-4.83-4.64-4.84"/><path d="M91.38,73.6a14.65,14.65,0,0,1,2.82,3.19l1.4-2.64a14.34,14.34,0,0,1-4.22-.55"/><path d="M99.43,74.82a3.05,3.05,0,0,1-1.87.79c-.5,0-.83-.33-.83-1a4.24,4.24,0,0,1,.53-1.85A1.62,1.62,0,0,1,98.49,72c.6,0,.8.53.88,1.07s0,1.35.06,1.75m.63-1.19c0-1.34-.81-1.86-1.57-1.86A2.66,2.66,0,0,0,96,74.3a1.45,1.45,0,0,0,1.5,1.53,3.2,3.2,0,0,0,1.93-.75.89.89,0,0,0,.86.75.83.83,0,0,0,.77-.63c0-.1-.09-.1-.12-.1s-.11,0-.13.11a.6.6,0,0,1-.5.4c-.28,0-.28-.8-.28-1a.26.26,0,0,1,.08-.23,5.33,5.33,0,0,0,.62-1,5,5,0,0,0,.42-1.13s0-.1-.12-.1-.11,0-.15.17a5.31,5.31,0,0,1-.86,1.75v-.5"/><path d="M103.26,74.94a1.53,1.53,0,0,1,.39-.48.9.9,0,0,1,.92-.08.35.35,0,0,0-.25.32.23.23,0,0,0,.24.24.37.37,0,0,0,.35-.38c0-.32-.35-.47-.73-.47a1.13,1.13,0,0,0-.89.44.65.65,0,0,0-.65-.44.58.58,0,0,0-.49.32,2,2,0,0,0-.23.6.1.1,0,0,0,.11.09c.1,0,.1,0,.13-.14.12-.46.26-.67.46-.67s.21.18.21.3a3.45,3.45,0,0,1-.1.51c0,.16-.1.4-.13.54l-.12.45c0,.17-.11.47-.11.5a.2.2,0,0,0,.21.2.29.29,0,0,0,.27-.2s.23-1,.27-1.09l.14-.56"/><path class="cls-7" d="M93.29,63.8c0-.54-.26-.7-.44-.7a.53.53,0,0,0-.49.48c0,.13,0,.19.17.3a1.08,1.08,0,0,1,.33.81c0,.42-.6,2.7-1.77,2.7-.51,0-.74-.34-.74-.86a7,7,0,0,1,.58-2.12,1.14,1.14,0,0,0,.12-.49.79.79,0,0,0-.82-.82c-.93,0-1.31,1.44-1.31,1.53s.1.1.12.1.11,0,.16-.17c.28-1,.71-1.24,1-1.24.08,0,.25,0,.25.32a1.94,1.94,0,0,1-.17.69,6.11,6.11,0,0,0-.57,2,1.19,1.19,0,0,0,1.34,1.23c1.67,0,2.24-3.3,2.24-3.81"/><path class="cls-7" d="M94.16,67.63a1.44,1.44,0,0,1,.38-.48.91.91,0,0,1,.52-.17.81.81,0,0,1,.4.09.35.35,0,0,0-.24.32.22.22,0,0,0,.24.23.36.36,0,0,0,.35-.37c0-.32-.35-.47-.73-.47a1.1,1.1,0,0,0-.89.44.66.66,0,0,0-.66-.44.57.57,0,0,0-.49.32,2.14,2.14,0,0,0-.22.6.1.1,0,0,0,.11.09c.1,0,.1-.05.13-.14.12-.46.26-.67.46-.67s.21.17.21.3a3.45,3.45,0,0,1-.1.51l-.13.53-.12.46c0,.16-.12.46-.12.5a.2.2,0,0,0,.21.2.29.29,0,0,0,.27-.21s.24-1,.28-1.08l.14-.56"/><line class="cls-6" x1="116.22" y1="70.98" x2="136.94" y2="59.51"/><path class="cls-7" d="M141.42,56.89a18.46,18.46,0,0,1-5.47.81l1.88,3.4a19.05,19.05,0,0,1,3.59-4.21"/><path class="cls-7" d="M142.68,61.74c0-.54-.26-.7-.44-.7a.53.53,0,0,0-.49.48c0,.13.05.19.16.3a1.05,1.05,0,0,1,.34.81c0,.42-.61,2.7-1.77,2.7-.51,0-.74-.34-.74-.86a7,7,0,0,1,.58-2.12,1.14,1.14,0,0,0,.12-.49.79.79,0,0,0-.82-.82c-.94,0-1.31,1.44-1.31,1.53s.1.1.12.1.1,0,.15-.17c.29-1,.72-1.24,1-1.24.08,0,.25,0,.25.32a1.94,1.94,0,0,1-.17.69,6.11,6.11,0,0,0-.57,2,1.19,1.19,0,0,0,1.34,1.23c1.67,0,2.24-3.3,2.24-3.81"/><path class="cls-7" d="M145.25,65.61a.35.35,0,0,0-.26.33.22.22,0,0,0,.24.23.35.35,0,0,0,.34-.38c0-.32-.35-.46-.65-.46a.82.82,0,0,0-.7.42.84.84,0,0,0-.76-.42,1.21,1.21,0,0,0-1.09.92s0,.08.11.08.1,0,.12-.09a1,1,0,0,1,.85-.71.35.35,0,0,1,.38.38,1,1,0,0,1-.05.31c-.14.56-.27,1.1-.3,1.18a.65.65,0,0,1-.55.43.62.62,0,0,1-.34-.09.35.35,0,0,0,.25-.33.23.23,0,0,0-.24-.23.35.35,0,0,0-.34.38c0,.34.37.46.66.46a.82.82,0,0,0,.69-.42.8.8,0,0,0,.75.42,1.2,1.2,0,0,0,1.1-.92s0-.08-.11-.08-.1,0-.12.09a1,1,0,0,1-.84.72.36.36,0,0,1-.39-.39,2.13,2.13,0,0,1,.08-.45l.19-.78a.93.93,0,0,1,.22-.48.58.58,0,0,1,.42-.2.71.71,0,0,1,.34.08"/><line class="cls-6" x1="111.18" y1="63.22" x2="116.37" y2="71.19"/><path class="cls-7" d="M108.64,59.31a18.68,18.68,0,0,1,1.19,5.4l3.26-2.12a18.61,18.61,0,0,1-4.45-3.28"/><path class="cls-7" d="M113.24,54.84c0-.54-.26-.7-.44-.7a.53.53,0,0,0-.49.48c0,.13,0,.19.16.3a1.05,1.05,0,0,1,.34.81c0,.42-.61,2.7-1.77,2.7-.51,0-.74-.34-.74-.86a7,7,0,0,1,.58-2.12A1.19,1.19,0,0,0,111,55a.79.79,0,0,0-.82-.81c-.94,0-1.31,1.44-1.31,1.53s.1.1.12.1.11,0,.15-.18c.29-1,.72-1.23,1-1.23.08,0,.25,0,.25.32a1.94,1.94,0,0,1-.17.69,6.11,6.11,0,0,0-.57,2.05A1.19,1.19,0,0,0,111,58.65c1.67,0,2.24-3.3,2.24-3.81"/><path class="cls-7" d="M115.79,58.07a.17.17,0,0,0,0-.08.2.2,0,0,0-.21-.2.3.3,0,0,0-.25.15s-.06.23-.09.34l-.13.49-.18.75a.84.84,0,0,1-.31.49.78.78,0,0,1-.51.22.43.43,0,0,1-.45-.5,3.4,3.4,0,0,1,.34-1.19.61.61,0,0,0,.08-.29.55.55,0,0,0-.6-.52c-.61,0-.9.79-.9.92s0,.08.1.08.11,0,.12-.09c.17-.58.49-.71.66-.71s.16.07.16.21a1.51,1.51,0,0,1-.15.49,2.93,2.93,0,0,0-.28,1c0,.57.43.78.89.78a1,1,0,0,0,.68-.28,1.59,1.59,0,0,1-.41.87,1.06,1.06,0,0,1-.74.37.68.68,0,0,1-.45-.16.37.37,0,0,0,.3-.34.23.23,0,0,0-.24-.23.37.37,0,0,0-.35.4c0,.29.28.53.75.53a1.69,1.69,0,0,0,1.58-1.22l.57-2.3"/><path d="M87.45,34.33c0-.13,0-.14,0-.17a.12.12,0,0,0-.18,0l-.91.61a.17.17,0,0,0-.08.24c.06.1.15,0,.26,0,.37-.21.41-.14.44-.08a.6.6,0,0,1,.07.21l1.18,4.39a1,1,0,0,0,.12.32.82.82,0,0,0,1.15.31.78.78,0,0,0,.35-.79,3.78,3.78,0,0,0-.18-.88.11.11,0,0,0-.16,0c-.09.06-.08.1,0,.27.16.6.22,1.08-.07,1.24s-.31,0-.45-.23a1.44,1.44,0,0,1-.14-.37l-1.33-5"/></g></g></svg>